<?xml version="1.0" encoding="utf-8"?><!-- Uploaded to: SVG Repo, www.svgrepo.com, Generator: SVG Repo Mixer Tools -->
<svg fill="#000000" width="800px" height="800px" viewBox="0 0 24 24" id="surveillance-camera" data-name="Flat Color" xmlns="http://www.w3.org/2000/svg" class="icon flat-color"><path id="primary" d="M11.55,12.17a1,1,0,0,0-1.38.28L6.46,18H4V17a1,1,0,0,0-2,0v4a1,1,0,0,0,2,0V20H7a1,1,0,0,0,.83-.45l4-6A1,1,0,0,0,11.55,12.17Z" style="fill: rgb(0, 0, 0);"></path><path id="secondary" d="M20,5H18a1,1,0,0,0-.95.68L16.28,8H5A1,1,0,0,0,4,9v3a2,2,0,0,0,2,2H16a2,2,0,0,0,2-2V11h2a2,2,0,0,0,2-2V7A2,2,0,0,0,20,5Z" style="fill: rgb(44, 169, 188);"></path><path id="primary-2" data-name="primary" d="M19.81,2.42A1,1,0,0,0,19,2H4A2,2,0,0,0,2,4V8a2,2,0,0,0,2,2H17A1,1,0,0,0,18,9.32l2-6A1,1,0,0,0,19.81,2.42Z" style="fill: rgb(0, 0, 0);"></path></svg>